<mxfile host="app.diagrams.net" modified="2024-03-12T07:45:38.788Z" agent="Mozilla/5.0 (X11; Ubuntu; Linux x86_64; rv:109.0) Gecko/20100101 Firefox/116.0" version="24.0.5" etag="5jns6emBimiZofbIu5A0" type="github">
  <diagram name="第 1 页" id="5oIKkoYmPlAmjkdavNMr">
    <mxGraphModel>
      <root>
        <mxCell id="0" />
        <mxCell id="1" parent="0" />
      </root>
    </mxGraphModel>
  </diagram>
</mxfile>
